<?xml version="1.0" ?><svg id="Layer_1" style="enable-background:new 0 0 128 128;" version="1.1" viewBox="0 0 128 128" xml:space="preserve" xmlns="http://www.w3.org/2000/svg" xmlns:xlink="http://www.w3.org/1999/xlink"><style type="text/css">
	.st0{fill:#725948;}
	.st1{fill:#1C4FBE;}
	.st2{fill:#EE693F;}
	.st3{fill:#FFB8CB;}
	.st4{fill:#F94003;}
	.st5{fill:#DEA740;}
	.st6{fill:#1CB6BE;}
	.st7{fill:#BCCE3E;}
	.st8{fill:#EDEFF2;}
	.st9{fill:#684E3C;}
	.st10{fill:#100F0D;}
	.st11{fill:#5B4332;}
	.st12{fill:#5C7242;}
	.st13{fill:#E1B0AF;}
	.st14{fill:#EC5527;}
	.st15{fill:#057590;}
	.st16{fill:#771C39;}
	.st17{fill:#F8A70C;}
	.st18{fill:#F06522;}
	.st19{fill:#FFFFFF;}
	.st20{fill:#CC7C2C;}
	.st21{fill:#5D6124;}
	.st22{fill:#E6AA30;}
	.st23{fill:#2AB06A;}
	.st24{fill:#1A1613;}
	.st25{fill:none;}
	.st26{fill:#EE4D4C;}
	.st27{fill:#0000FF;}
	.st28{fill:#FC4310;}
	.st29{fill:#03A551;}
	.st30{fill:#E6222A;}
	.st31{fill:#FAFCFB;}
	.st32{fill:#070707;}
	.st33{fill:#BB8B90;}
	.st34{fill:#B298E5;}
	.st35{fill:#19191B;}
</style><path class="st3" d="M1.3,72.8l16.1-47.1l44.3-23l43.2,14.4l21.8,39.5L115.2,103l-42,20.7l-48.8-9.9L1.3,72.8L1.3,72.8z"/><polygon class="st10" points="106.8,56.4 29.5,43.1 27.6,45.7 35.7,58 30.8,69.3 36.7,73.3 45.3,64.2 51.7,67.1 50.3,79.4   57.2,81.5 62.9,70 71.9,71 74.6,82.5 81.8,82.1 83.4,70.4 92.8,68.4 99,77.2 105.5,74.4 103.5,64.4 107.4,59.5 106.8,56.4   106.8,56.4 "/></svg>