<svg id="Layer_1" enable-background="new 0 0 512.002 512.002" height="512" viewBox="0 0 512.002 512.002" width="512" xmlns="http://www.w3.org/2000/svg"><g><g clip-rule="evenodd" fill-rule="evenodd"><path d="m146.001 160.001v30 50c74.832 0 73.168-27.031 110-27.031s35.168 27.031 110 27.031v-49.999-30c0-60.5-49.5-110-110-110s-110 49.499-110 109.999z" fill="#ffdcd5"/><path d="m126.002 502.002v-90c-31.615 9.458-60 27-60 60v30z" fill="#cbe558"/><path d="m126.002 412.002v90h259.998v-90l-90-26.924c-8.251 14.291-23.498 23.094-40 23.094s-31.749-8.803-40-23.094z" fill="#cbe558"/><path d="m346.001 502.002h39.999v-90l-39.999-11.966z" fill="#fff"/><path d="m126.002 412.002v90h39.999v-101.966z" fill="#fff"/><path d="m386 412.002v90h60v-30c0-32.999-28.385-50.543-60-60z" fill="#cbe558"/><path d="m256.001 408.172c16.502 0 31.749-8.803 40.001-23.094v-38.441c-11.403 2.196-24.64 3.364-40 3.364s-28.597-1.168-40-3.364v38.441c8.25 14.29 23.497 23.094 39.999 23.094z" fill="#ffdcd5"/><g><path d="m216.001 26.603v93.065c12.94-3.444 26.378-5.23 40-5.23s27.06 1.787 40 5.23v-93.065-6.603c0-5.499-4.5-10-10-10h-60c-5.5 0-10 4.5-10 10z" fill="#ffcd69"/><g fill="#ffc144"><path d="m216.001 119.668v-93.065c-49.29 16.777-85 63.619-85 118.397v15l15 .001c19.541-19.541 43.747-33.347 70-40.333z"/><path d="m256.001 114.437c-13.622 0-27.06 1.787-40 5.23-26.253 6.986-50.458 20.792-69.999 40.333l219.999.001c-19.542-19.542-43.747-33.348-70-40.334-12.94-3.443-26.378-5.23-40-5.23z"/><path d="m296.001 26.603v93.065c26.253 6.986 50.458 20.792 69.999 40.332h15.001v-15c0-54.778-35.71-101.62-85-118.397z"/></g></g><path d="m146.001 240.001v-49.999h-15c-13.75 0-25 11.25-25 25s11.25 25 25 25z" fill="#ffdcd5"/><path d="m366.001 190.001v50h15c13.75 0 25-11.25 25-25s-11.25-25-25-25z" fill="#ffdcd5"/><path d="m366.001 240.001c-74.832.001-73.168-27.031-110-27.031s-35.168 27.031-110 27.031c0 51.207 7.164 94.534 70 106.636 11.403 2.196 24.64 3.364 40 3.364s28.597-1.168 40-3.364c62.836-12.102 70-55.429 70-106.636z" fill="#fff"/></g><g><path d="m388.866 402.422-82.865-24.79v-23.036c22.546-5.7 39.24-15.941 50.491-30.896 15.245-20.263 18.8-46.942 19.402-73.699h5.108c19.299 0 34.999-15.701 34.999-35s-15.7-34.999-34.999-34.999h-5-.001v-10.002h5c5.522 0 10-4.478 10-10v-15c0-55.367-33.888-104.862-85.017-125.337-.183-10.872-9.068-19.663-19.983-19.663h-60c-10.916 0-19.802 8.793-19.983 19.666-10.739 4.313-20.9 9.98-30.267 16.94-4.433 3.294-5.355 9.558-2.062 13.991 1.962 2.641 4.979 4.036 8.034 4.036 2.073 0 4.165-.643 5.957-1.975 5.778-4.294 11.909-8.008 18.32-11.13v70.587c-23.719 7.491-45.586 20.329-64.051 37.884h-.949v-5c0-8.018.846-16.046 2.513-23.859 1.152-5.401-2.293-10.715-7.694-11.867-5.401-1.149-10.713 2.293-11.866 7.694-1.959 9.183-2.952 18.614-2.952 28.032v15c0 5.522 4.478 10 10 10h5v10.002h-5c-19.299 0-35 15.7-35 34.999s15.701 35 35 35h5.107c.602 26.757 4.157 53.436 19.402 73.699 11.251 14.954 27.945 25.195 50.491 30.896v23.036l-82.865 24.79c-55.486 16.599-67.134 47-67.134 69.58v30c0 5.522 4.478 10 10 10h379.998c5.522 0 10-4.478 10-10v-30c0-22.58-11.647-52.981-67.134-69.579zm-12.866 89.58h-20.001v-78.537l20.001 5.984zm-40.001-84.52v84.52h-69.998v-74.741c13.446-2.448 25.634-9.754 34.126-20.511zm40.003-207.48h5c8.271 0 14.999 6.729 14.999 14.999 0 8.271-6.729 15-14.999 15h-5.001l.001-29.999c-.001 0 0 0 0 0zm-120.001-75.564c29.789 0 58.332 8.955 82.429 25.563h-164.859c24.098-16.608 52.641-25.563 82.43-25.563zm115 20.562v5h-.95c-18.464-17.555-40.33-30.393-64.05-37.884v-70.61c39.386 19.082 65 59.076 65 103.494zm-145-125h60v87.156c-9.808-1.792-19.839-2.719-30-2.719s-20.192.927-30 2.719zm130 150v59.82c-34.146-1.246-48.521-8.878-61.319-15.684-10.8-5.743-21.001-11.167-38.681-11.167s-27.881 5.424-38.681 11.167c-12.799 6.805-27.174 14.438-61.319 15.684v-59.82zm-240 45.001c0-8.271 6.729-14.999 15-14.999h5v29.999h-5c-8.272 0-15-6.729-15-15zm40.093 34.824c39.219-1.351 56.52-10.534 70.616-18.029 9.637-5.124 16.599-8.826 29.291-8.826s19.654 3.702 29.291 8.826c14.096 7.495 31.397 16.678 70.616 18.029-1.065 51.768-12.704 90.176-99.907 90.176s-98.841-38.408-99.907-90.176zm99.907 110.176c10.778 0 20.771-.569 30-1.714v23.927c-6.685 9.9-17.958 15.958-30 15.958s-23.315-6.057-30-15.958v-23.927c9.229 1.145 19.222 1.714 30 1.714zm-44.126 36.749c8.492 10.757 20.681 18.063 34.126 20.511v74.741h-69.998v-84.521zm-75.873 22.698 20.001-5.983v78.538h-20.001zm-60 52.554c0-19.959 13.447-35.383 40-45.969v65.969h-40zm359.998 20h-40v-65.969c26.553 10.585 40 26.009 40 45.969z"/><path d="m216.004 200.002c5.522 0 10-4.478 10-10s-4.478-10-10-10h-.008c-5.522 0-9.996 4.478-9.996 10s4.481 10 10.004 10z"/><path d="m296.007 200.002c5.522 0 10-4.478 10-10s-4.478-10-10-10h-.008c-5.522 0-9.996 4.478-9.996 10s4.481 10 10.004 10z"/><path d="m256.001 268.72c12.05 0 18.59 2.87 27.643 6.843 7.803 3.424 17.513 7.685 32.434 10.528.633.12 1.262.179 1.883.179 4.706 0 8.899-3.337 9.813-8.13 1.034-5.425-2.525-10.661-7.951-11.695-12.699-2.421-20.55-5.865-28.142-9.196-9.994-4.386-19.435-8.528-35.679-8.528s-25.685 4.143-35.679 8.528c-7.592 3.331-15.441 6.775-28.141 9.196-5.426 1.034-8.985 6.271-7.951 11.695s6.268 8.982 11.695 7.951c14.921-2.844 24.631-7.105 32.434-10.528 9.051-3.973 15.592-6.843 27.641-6.843z"/><path d="m275.444 315.715c1.111.397 2.247.586 3.364.586 4.106 0 7.956-2.55 9.417-6.639 1.858-5.2-.852-10.923-6.053-12.781-7.833-2.799-15.282-4.663-26.172-4.663s-18.339 1.864-26.172 4.663c-5.201 1.858-7.911 7.581-6.053 12.781 1.859 5.203 7.586 7.913 12.781 6.053 5.158-1.843 10.526-3.497 19.443-3.497s14.287 1.654 19.445 3.497z"/><path d="m150.949 87.466c5.522 0 10-4.478 10-10s-4.478-10-10-10h-.007c-5.522 0-9.996 4.478-9.996 10s4.481 10 10.003 10z"/></g></g></svg>