<?xml version="1.0" encoding="iso-8859-1"?>
<!-- Generator: Adobe Illustrator 19.0.0, SVG Export Plug-In . SVG Version: 6.00 Build 0)  -->
<svg version="1.1" id="Capa_1" xmlns="http://www.w3.org/2000/svg" xmlns:xlink="http://www.w3.org/1999/xlink" x="0px" y="0px"
	 viewBox="0 0 384 384" style="enable-background:new 0 0 384 384;" xml:space="preserve">
<polygon style="fill:#EBF0F3;" points="202.035,356.952 202.035,255.915 181.967,255.915 181.967,356.952 0,356.952 0,377.019 
	384,377.019 384,356.952 "/>
<path style="fill:#E56353;" d="M249.436,349.971H212.54c-1.946,0-3.525-1.579-3.525-3.526v-28.966c0-1.947-1.579-3.526-3.525-3.526
	H178.51c-1.946,0-3.525,1.579-3.525,3.526v28.966c0,1.947-1.578,3.526-3.525,3.526h-36.893c-1.948,0-3.526,1.578-3.526,3.526v26.978
	c0,1.947,1.578,3.526,3.526,3.526h114.87c1.948,0,3.527-1.578,3.527-3.526v-26.978C252.963,351.549,251.384,349.971,249.436,349.971
	z"/>
<rect x="68.36" y="77.548" style="fill:#3A556A;" width="247.296" height="129.812"/>
<path style="fill:#EBF0F3;" d="M325.09,0H58.91c-5.755,0-10.419,4.675-10.419,10.441V77.85c0,5.767,4.664,10.441,10.419,10.441
	h266.18c5.754,0,10.419-4.674,10.419-10.441V10.441C335.509,4.675,330.844,0,325.09,0z"/>
<rect x="190.12" y="15.688" style="fill:#27A2DB;" width="129.748" height="56.916"/>
<rect x="190.12" y="62.164" style="fill:#2D93BA;" width="129.748" height="10.436"/>
<ellipse style="fill:#44C4A1;" cx="87.324" cy="44.16" rx="14.768" ry="14.8"/>
<ellipse style="fill:#FCD462;" cx="139.272" cy="44.16" rx="14.768" ry="14.8"/>
<path style="fill:#EBF0F3;" d="M325.09,99.364H58.91c-5.755,0-10.419,4.674-10.419,10.441v67.41c0,5.766,4.664,10.441,10.419,10.441
	h266.18c5.754,0,10.419-4.674,10.419-10.441v-67.41C335.509,104.038,330.844,99.364,325.09,99.364z"/>
<rect x="190.12" y="115.052" style="fill:#27A2DB;" width="129.748" height="56.912"/>
<rect x="190.12" y="161.52" style="fill:#2D93BA;" width="129.748" height="10.436"/>
<ellipse style="fill:#44C4A1;" cx="87.324" cy="143.508" rx="14.768" ry="14.8"/>
<ellipse style="fill:#FCD462;" cx="139.272" cy="143.508" rx="14.768" ry="14.8"/>
<path style="fill:#EBF0F3;" d="M325.09,198.727H58.91c-5.755,0-10.419,4.675-10.419,10.442v67.41c0,5.766,4.664,10.44,10.419,10.44
	h266.18c5.754,0,10.419-4.674,10.419-10.44v-67.41C335.509,203.402,330.844,198.727,325.09,198.727z"/>
<rect x="190.12" y="214.4" style="fill:#27A2DB;" width="129.748" height="56.912"/>
<rect x="190.12" y="260.88" style="fill:#2D93BA;" width="129.748" height="10.436"/>
<ellipse style="fill:#44C4A1;" cx="87.324" cy="242.88" rx="14.768" ry="14.8"/>
<ellipse style="fill:#FCD462;" cx="139.272" cy="242.88" rx="14.768" ry="14.8"/>
<g>
</g>
<g>
</g>
<g>
</g>
<g>
</g>
<g>
</g>
<g>
</g>
<g>
</g>
<g>
</g>
<g>
</g>
<g>
</g>
<g>
</g>
<g>
</g>
<g>
</g>
<g>
</g>
<g>
</g>
</svg>
