<?xml version="1.0" encoding="UTF-8" standalone="no"?> <svg width="64" height="64" viewBox="0 0 64 64" fill="none" xmlns="http://www.w3.org/2000/svg">
<path d="M37.28 39.61L37.16 38.47L36 38.75C33.351 39.4412 30.5689 39.4412 27.92 38.75L26.8 38.47L26.68 39.61C26.4135 42.0429 26.6877 44.5046 27.4829 46.8193C28.278 49.134 29.5746 51.2445 31.28 53L32 53.75L32.72 53C34.4141 51.2443 35.7008 49.1371 36.4889 46.8282C37.277 44.5192 37.5471 42.0651 37.28 39.64V39.61Z" fill="#97CCEF"/>
<path d="M47.49 25.28C46.1251 24.923 44.7208 24.7382 43.31 24.73C39.4993 24.7382 35.8056 26.047 32.84 28.44L31.99 29.12L32.75 29.91C34.7428 32.0004 36.1619 34.57 36.87 37.37L37.14 38.49L38.21 38.06C40.6781 37.0649 42.873 35.495 44.6123 33.4809C46.3516 31.4668 47.585 29.0667 48.21 26.48L48.44 25.53L47.49 25.28Z" fill="#F0454E"/>
<path d="M31.16 28.44C28.1944 26.047 24.5007 24.7382 20.69 24.73C19.2792 24.7382 17.8749 24.923 16.51 25.28L15.51 25.53L15.74 26.48C16.365 29.0667 17.5984 31.4668 19.3377 33.4809C21.077 35.495 23.2719 37.0649 25.74 38.06L26.81 38.49L27.08 37.37C27.7881 34.57 29.2072 32.0004 31.2 29.91L31.96 29.12L31.16 28.44Z" fill="#F8B64C"/>
<path d="M32 40.2699C28.4985 40.2719 25.075 39.2352 22.1627 37.2911C19.2504 35.3469 16.9802 32.5827 15.6393 29.348C14.2984 26.1133 13.947 22.5536 14.6297 19.1192C15.3123 15.6848 16.9983 12.5301 19.4743 10.0541C21.9502 7.5781 25.105 5.89213 28.5394 5.20949C31.9738 4.52685 35.5335 4.87822 38.7682 6.21913C42.0028 7.56004 44.7671 9.83024 46.7112 12.7425C48.6554 15.6548 49.692 19.0783 49.69 22.5799C49.6848 27.2699 47.8193 31.7664 44.5029 35.0827C41.1865 38.3991 36.6901 40.2646 32 40.2699V40.2699ZM32 6.87988C28.8945 6.8779 25.858 7.79701 23.2749 9.52094C20.6917 11.2449 18.6778 13.6962 17.488 16.5648C16.2982 19.4334 15.9858 22.5905 16.5905 25.6367C17.1952 28.6828 18.6896 31.4812 20.8849 33.6779C23.0802 35.8746 25.8777 37.3709 28.9234 37.9775C31.9692 38.5841 35.1265 38.2737 37.9959 37.0857C40.8652 35.8977 43.3178 33.8854 45.0434 31.3034C46.769 28.7213 47.69 25.6855 47.69 22.5799C47.6874 18.4185 46.0338 14.4282 43.0922 11.4848C40.1506 8.5413 36.1614 6.88518 32 6.87988V6.87988Z" fill="#F8B64C"/>
<path d="M43.31 59.12C39.8088 59.122 36.3857 58.0856 33.4737 56.1419C30.5616 54.1982 28.2914 51.4345 26.9502 48.2004C25.609 44.9663 25.257 41.4071 25.9389 37.973C26.6207 34.5389 28.3057 31.3841 30.7807 28.9077C33.2556 26.4313 36.4095 24.7446 39.8432 24.0608C43.2769 23.377 46.8363 23.727 50.0712 25.0664C53.306 26.4057 56.071 28.6744 58.0163 31.5853C59.9616 34.4963 61 37.9188 61 41.42C60.9973 46.1118 59.133 50.6108 55.8164 53.9293C52.4997 57.2478 48.0018 59.1147 43.31 59.12V59.12ZM43.31 25.73C40.204 25.728 37.1672 26.6474 34.5838 28.3717C32.0004 30.0961 29.9865 32.548 28.797 35.4172C27.6075 38.2864 27.2957 41.444 27.9012 44.4904C28.5066 47.5369 30.0021 50.3353 32.1984 52.5316C34.3947 54.7278 37.1931 56.2233 40.2395 56.8288C43.286 57.4343 46.4435 57.1225 49.3127 55.933C52.1819 54.7434 54.6338 52.7296 56.3582 50.1462C58.0826 47.5628 59.002 44.526 59 41.42C58.9947 37.2604 57.3399 33.2726 54.3986 30.3313C51.4573 27.39 47.4696 25.7353 43.31 25.73V25.73Z" fill="#F0454E"/>
<path d="M20.69 59.12C17.1888 59.122 13.7657 58.0856 10.8537 56.1419C7.94161 54.1982 5.6714 51.4345 4.33019 48.2004C2.98899 44.9663 2.63704 41.4071 3.31887 37.973C4.0007 34.5389 5.68567 31.3841 8.16066 28.9077C10.6357 26.4313 13.7895 24.7446 17.2232 24.0608C20.6569 23.377 24.2163 23.727 27.4512 25.0664C30.686 26.4057 33.451 28.6744 35.3963 31.5853C37.3416 34.4963 38.38 37.9188 38.38 41.42C38.3747 46.111 36.5096 50.6084 33.1935 53.9264C29.8774 57.2444 25.381 59.112 20.69 59.12ZM20.69 25.73C17.584 25.728 14.5472 26.6474 11.9638 28.3717C9.38039 30.0961 7.36653 32.548 6.177 35.4172C4.98746 38.2864 4.67571 41.444 5.28118 44.4904C5.88664 47.5369 7.38213 50.3353 9.57841 52.5316C11.7747 54.7278 14.5731 56.2233 17.6195 56.8288C20.666 57.4343 23.8235 57.1225 26.6927 55.933C29.5619 54.7434 32.0139 52.7296 33.7382 50.1462C35.4626 47.5628 36.382 44.526 36.38 41.42C36.3747 37.2604 34.7199 33.2726 31.7786 30.3313C28.8373 27.39 24.8496 25.7353 20.69 25.73V25.73Z" fill="#97CCEF"/>
</svg>
