<svg id="Layer_1" enable-background="new 0 0 256 256" height="512" viewBox="0 0 256 256" width="512" xmlns="http://www.w3.org/2000/svg"><path d="m243.15 189.818h-230.3c-4.888 0-8.85-3.962-8.85-8.85v-141.796c0-4.888 3.962-8.85 8.85-8.85h230.3c4.888 0 8.85 3.962 8.85 8.85v141.796c0 4.888-3.962 8.85-8.85 8.85z" fill="#f4efed"/><path d="m22.85 128h111.513v15.471h-111.513z" fill="#ff4397"/><path d="m22.85 154.762h111.513v15.47h-111.513z" fill="#ff4397"/><path d="m243.15 30.322h-10c4.888 0 8.85 3.962 8.85 8.85v141.796c0 4.888-3.962 8.85-8.85 8.85h10c4.888 0 8.85-3.962 8.85-8.85v-141.796c0-4.888-3.962-8.85-8.85-8.85z" fill="#d6d1cf"/><path d="m12.85 189.818h10c-4.888 0-8.85-3.962-8.85-8.85v-141.796c0-4.888 3.962-8.85 8.85-8.85h-10c-4.888 0-8.85 3.962-8.85 8.85v141.796c0 4.888 3.962 8.85 8.85 8.85z" fill="#fff"/><path d="m243.15 191.818h-230.3c-5.983 0-10.85-4.867-10.85-10.851v-141.795c0-5.982 4.867-10.85 10.85-10.85h230.3c5.982 0 10.85 4.867 10.85 10.85v141.796c0 5.983-4.867 10.85-10.85 10.85zm-230.3-159.496c-3.777 0-6.85 3.072-6.85 6.85v141.796c0 3.777 3.073 6.851 6.85 6.851h230.3c3.777 0 6.85-3.073 6.85-6.851v-141.796c0-3.777-3.072-6.85-6.85-6.85z" fill="#690589"/><path d="m208.901 225.678h-161.802v-11.854c0-4.888 3.962-8.85 8.85-8.85h144.102c4.888 0 8.85 3.962 8.85 8.85z" fill="#7bac51"/><path d="m200.051 204.974h-10c4.888 0 8.85 3.962 8.85 8.85v11.855h10v-11.855c0-4.888-3.962-8.85-8.85-8.85z" fill="#5d8e33"/><path d="m55.949 204.974h10c-4.888 0-8.85 3.962-8.85 8.85v11.855h-10v-11.855c0-4.888 3.962-8.85 8.85-8.85z" fill="#99ca6f"/><path d="m80.503 189.818h94.993v15.156h-94.993z" fill="#5d8e33"/><path d="m12 67.526c-1.104 0-2-.896-2-2v-12c0-1.104.896-2 2-2s2 .896 2 2v12c0 1.105-.896 2-2 2z" fill="#690589"/><path d="m208.901 227.678h-161.802c-1.104 0-2-.896-2-2v-11.854c0-5.983 4.867-10.851 10.85-10.851h144.102c5.983 0 10.851 4.867 10.851 10.851v11.854c-.001 1.104-.896 2-2.001 2zm-159.802-4h157.802v-9.854c0-3.777-3.073-6.851-6.851-6.851h-144.101c-3.777 0-6.85 3.073-6.85 6.851z" fill="#690589"/><path d="m175.497 206.974h-94.994c-1.104 0-2-.896-2-2v-15.155c0-1.104.896-2 2-2h94.994c1.104 0 2 .896 2 2v15.155c0 1.104-.895 2-2 2zm-92.994-4h90.994v-11.155h-90.994z" fill="#690589"/><path d="m233.599 121.154v-14.687h-8.128c-.944-4.616-2.767-8.911-5.276-12.712l5.755-5.755-10.385-10.385-5.755 5.755c-3.801-2.509-8.095-4.332-12.712-5.276v-8.128h-14.687v8.128c-4.616.944-8.911 2.767-12.712 5.276l-5.755-5.755-10.385 10.385 5.755 5.755c-2.509 3.801-4.332 8.095-5.276 12.712h-8.128v14.687h8.128c.944 4.616 2.767 8.911 5.276 12.712l-5.755 5.755 10.386 10.385 5.755-5.755c3.801 2.509 8.095 4.332 12.712 5.276v8.128h14.687v-8.128c4.616-.944 8.911-2.767 12.712-5.276l5.755 5.755 10.385-10.385-5.755-5.755c2.509-3.801 4.332-8.095 5.276-12.712zm-43.844 16.436c-13.133 0-23.779-10.646-23.779-23.78 0-13.133 10.646-23.779 23.779-23.779s23.78 10.646 23.78 23.779c-.001 13.133-10.647 23.78-23.78 23.78z" fill="#fcc24c"/><path d="m197.099 159.654h-14.688c-1.104 0-2-.896-2-2v-6.531c-3.669-.915-7.163-2.366-10.427-4.329l-4.625 4.626c-.75.75-2.078.75-2.828 0l-10.386-10.386c-.781-.781-.781-2.047 0-2.828l4.625-4.626c-1.962-3.261-3.413-6.756-4.329-10.427h-6.531c-1.104 0-2-.896-2-2v-14.687c0-1.104.896-2 2-2h6.531c.916-3.671 2.367-7.166 4.329-10.427l-4.625-4.626c-.781-.781-.781-2.047 0-2.828l10.386-10.385c.375-.375.884-.586 1.414-.586.53 0 1.039.211 1.414.586l4.625 4.626c3.262-1.962 6.757-3.413 10.427-4.329v-6.531c0-1.104.896-2 2-2h14.688c1.104 0 2 .896 2 2v6.531c3.67.916 7.165 2.367 10.426 4.328l4.626-4.625c.781-.781 2.047-.781 2.828 0l10.386 10.386c.781.781.781 2.047 0 2.828l-4.625 4.626c1.962 3.261 3.413 6.756 4.329 10.427h6.531c1.104 0 2 .896 2 2v14.687c0 1.104-.896 2-2 2h-6.531c-.916 3.671-2.367 7.166-4.329 10.427l4.625 4.626c.781.781.781 2.047 0 2.828l-10.386 10.386c-.375.375-.884.586-1.414.586-.53 0-1.039-.211-1.414-.586l-4.625-4.626c-3.264 1.963-6.758 3.414-10.427 4.329v6.531c0 1.104-.896 1.999-2 1.999zm-12.688-4h10.688v-6.128c0-.95.669-1.77 1.6-1.96 4.283-.875 8.324-2.552 12.011-4.984.794-.525 1.846-.417 2.516.255l4.34 4.341 7.558-7.558-4.341-4.341c-.672-.672-.778-1.724-.255-2.517 2.432-3.682 4.108-7.723 4.986-12.01.19-.932 1.009-1.6 1.959-1.6h6.128v-10.687h-6.128c-.95 0-1.769-.668-1.959-1.6-.878-4.287-2.555-8.328-4.986-12.01-.523-.793-.417-1.845.255-2.517l4.339-4.338-7.558-7.558-4.341 4.341c-.672.672-1.721.78-2.516.255-3.684-2.431-7.724-4.108-12.01-4.985-.932-.19-1.6-1.009-1.6-1.959v-6.128h-10.688v6.128c0 .95-.668 1.769-1.6 1.959-4.285.877-8.326 2.555-12.011 4.985-.794.523-1.846.416-2.516-.255l-4.34-4.341-7.554 7.558 4.341 4.341c.672.672.778 1.724.255 2.517-2.432 3.682-4.108 7.723-4.986 12.01-.19.932-1.009 1.6-1.959 1.6h-6.128v10.687h6.128c.95 0 1.769.668 1.959 1.6.878 4.287 2.555 8.328 4.986 12.01.523.793.417 1.845-.255 2.517l-4.341 4.341 7.558 7.558 4.34-4.341c.671-.671 1.723-.779 2.516-.255 3.687 2.433 7.728 4.109 12.011 4.984.931.19 1.6 1.01 1.6 1.96v6.125zm5.344-16.064c-14.215 0-25.779-11.565-25.779-25.78s11.564-25.78 25.779-25.78 25.779 11.564 25.779 25.779-11.564 25.781-25.779 25.781zm0-47.56c-12.009 0-21.779 9.771-21.779 21.779 0 12.01 9.771 21.78 21.779 21.78s21.779-9.771 21.779-21.78c0-12.008-9.77-21.779-21.779-21.779z" fill="#690589"/><path d="m28.153 107.398c-.506 0-1.012-.19-1.401-.573-.789-.773-.8-2.04-.026-2.828l33.768-34.398c.706-.718 1.835-.8 2.636-.191l31.29 23.743 38.537-38.181c.784-.775 2.051-.772 2.828.014.777.784.771 2.051-.014 2.828l-39.77 39.402c-.708.702-1.823.775-2.617.172l-31.27-23.729-32.534 33.143c-.392.398-.909.598-1.427.598z" fill="#690589"/><path d="m35.26 105.398c0 3.925-3.182 7.107-7.107 7.107s-7.107-3.182-7.107-7.107 3.182-7.107 7.107-7.107c3.925.001 7.107 3.183 7.107 7.107z" fill="#7bac51"/><path d="m69.027 71c0 3.925-3.182 7.107-7.107 7.107s-7.107-3.182-7.107-7.107 3.182-7.107 7.107-7.107c3.925.001 7.107 3.182 7.107 7.107z" fill="#7bac51"/><path d="m101.7 95.793c0 3.925-3.182 7.107-7.107 7.107s-7.107-3.182-7.107-7.107 3.182-7.107 7.107-7.107 7.107 3.182 7.107 7.107z" fill="#7bac51"/><path d="m141.47 56.39c0 3.925-3.182 7.107-7.107 7.107s-7.107-3.182-7.107-7.107 3.182-7.107 7.107-7.107c3.925.001 7.107 3.182 7.107 7.107z" fill="#7bac51"/><g fill="#690589"><path d="m28.153 114.505c-5.021 0-9.106-4.085-9.106-9.106s4.085-9.106 9.106-9.106 9.107 4.085 9.107 9.106-4.086 9.106-9.107 9.106zm0-14.213c-2.816 0-5.106 2.291-5.106 5.106s2.291 5.106 5.106 5.106 5.107-2.291 5.107-5.106-2.291-5.106-5.107-5.106z"/><path d="m61.92 80.106c-5.021 0-9.107-4.085-9.107-9.106s4.085-9.106 9.107-9.106 9.106 4.085 9.106 9.106-4.084 9.106-9.106 9.106zm0-14.212c-2.816 0-5.107 2.291-5.107 5.106s2.291 5.106 5.107 5.106 5.106-2.291 5.106-5.106-2.29-5.106-5.106-5.106z"/><path d="m94.593 104.899c-5.021 0-9.106-4.085-9.106-9.106s4.085-9.107 9.106-9.107 9.107 4.086 9.107 9.107-4.085 9.106-9.107 9.106zm0-14.213c-2.816 0-5.106 2.291-5.106 5.107 0 2.815 2.291 5.106 5.106 5.106s5.107-2.291 5.107-5.106c0-2.816-2.291-5.107-5.107-5.107z"/><path d="m134.363 65.497c-5.021 0-9.106-4.085-9.106-9.106s4.085-9.107 9.106-9.107 9.106 4.086 9.106 9.107-4.084 9.106-9.106 9.106zm0-14.214c-2.815 0-5.106 2.291-5.106 5.107 0 2.815 2.291 5.106 5.106 5.106s5.106-2.291 5.106-5.106c.001-2.816-2.29-5.107-5.106-5.107z"/><path d="m134.363 145.471h-111.513c-1.104 0-2-.896-2-2v-15.471c0-1.104.896-2 2-2h111.513c1.104 0 2 .896 2 2v15.471c0 1.104-.895 2-2 2zm-109.513-4h107.513v-11.471h-107.513z"/><path d="m134.363 172.232h-111.513c-1.104 0-2-.896-2-2v-15.471c0-1.104.896-2 2-2h111.513c1.104 0 2 .896 2 2v15.471c0 1.105-.895 2-2 2zm-109.513-4h107.513v-11.471h-107.513z"/></g></svg>