<?xml version="1.0" encoding="iso-8859-1"?>
<!-- Generator: Adobe Illustrator 19.0.0, SVG Export Plug-In . SVG Version: 6.00 Build 0)  -->
<svg version="1.1" id="Layer_1" xmlns="http://www.w3.org/2000/svg" xmlns:xlink="http://www.w3.org/1999/xlink" x="0px" y="0px"
	 viewBox="0 0 512 512" style="enable-background:new 0 0 512 512;" xml:space="preserve">
<path style="fill:#25B6D2;" d="M512,302.992l-77.904-70.096l-77.904,70.096H412.8v20.6c-0.016,17.16-13.928,31.072-31.088,31.088
	h-134.4L329.6,147.44h52.072c17.176-0.008,31.112,13.912,31.128,31.088v20.688h41.44v-20.72
	c-0.048-40.04-32.496-72.488-72.536-72.536h-35.608l15.408-38.744L318.056,49.92l-22.264,56.072H129.6
	c-40.048,0.032-72.512,32.488-72.56,72.536v20.688H0l77.904,70.096l77.912-70.096H98.488v-20.688
	c0.016-17.168,13.944-31.08,31.112-31.088h149.76l-82.296,207.2H129.6c-17.16-0.016-31.072-13.928-31.088-31.088V302.88H57.04
	v20.712c0.048,40.048,32.512,72.504,72.56,72.536h51l-19.376,48.688l43.448,17.264l26.208-65.984h150.824
	c40.04-0.048,72.488-32.496,72.536-72.536v-20.568H512z"/>
<g>
</g>
<g>
</g>
<g>
</g>
<g>
</g>
<g>
</g>
<g>
</g>
<g>
</g>
<g>
</g>
<g>
</g>
<g>
</g>
<g>
</g>
<g>
</g>
<g>
</g>
<g>
</g>
<g>
</g>
</svg>
