<svg id="icon" height="512" viewBox="0 0 128 128" width="512" xmlns="http://www.w3.org/2000/svg"><path d="m90.684 43.194-23.828 23.655-31.421-31.575 23.522-23.807a22.436 22.436 0 0 1 34.436 28.45 22.09 22.09 0 0 1 -2.709 3.277z" fill="#d9e2e9"/><path d="m34.942 35.2-27.371 27.126a22.433 22.433 0 1 0 31.729 31.725l27.367-27.127z" fill="#5fc4f8"/><path d="m66.667 66.924 26.726-27.007a22.412 22.412 0 0 0 3.407-17.053l-36.955 37.236z" fill="#c1cdd3"/><path d="m66.47 66.854-27.177 27.2a22.42 22.42 0 0 1 -31.723-.015 20.481 20.481 0 0 1 -1.625-1.814 16.343 16.343 0 0 1 -1.381-1.95c.46.3.921.569 1.394.826a22.264 22.264 0 0 0 2.9 1.327c.284.095.569.19.839.271s.6.19.867.271a6.912 6.912 0 0 0 .717.176c.271.081.542.135.813.19a22.533 22.533 0 0 0 8.828.054c.352-.081.69-.149 1.029-.244a6.466 6.466 0 0 0 .88-.23 6.259 6.259 0 0 0 .664-.2c.3-.081.582-.176.88-.284.23-.095.447-.176.677-.271.65-.271 1.3-.569 1.923-.894a20.573 20.573 0 0 0 2.545-1.544c.2-.149.42-.312.623-.46.081-.054.149-.122.244-.189.217-.162.406-.325.609-.5a6.224 6.224 0 0 0 .636-.555c.284-.257.569-.515.84-.785l27.373-27.134z" fill="#3dbce9"/><path d="m23.433 101.61a23.36 23.36 0 0 1 -16.57-6.852 23.46 23.46 0 0 1 0-33.139l51.1-51.142a23.433 23.433 0 0 1 33.137 33.139l-51.1 51.142a23.361 23.361 0 0 1 -16.567 6.852zm-15.156-8.266a21.457 21.457 0 0 0 30.311 0l51.102-51.144a21.433 21.433 0 1 0 -30.31-30.309l-51.102 51.142a21.458 21.458 0 0 0 0 30.311z" fill="#2f3a5a"/><path d="m23.433 101.61a23.422 23.422 0 0 1 -16.57-39.991l28.083-27.832 32.937 33.068-27.883 27.903a23.361 23.361 0 0 1 -16.567 6.852zm11.5-65-26.659 26.426a21.433 21.433 0 0 0 30.314 30.308l26.469-26.49z" fill="#2f3a5a"/><g fill="#fff" opacity=".25"><path d="m53.874 24.545a2.186 2.186 0 0 0 -3.093 0l-32.881 32.88a2.187 2.187 0 0 0 3.093 3.093l32.881-32.881a2.186 2.186 0 0 0 0-3.092z"/><path d="m60.678 17.74a2.186 2.186 0 0 0 -3.093 0l-1.17 1.17a2.187 2.187 0 0 0 3.093 3.09l1.17-1.17a2.186 2.186 0 0 0 0-3.09z"/></g><path d="m101.768 117.221v5.7a30.244 30.244 0 0 1 -10.583 0v-4.081c.248.015.5.015.758.015a30.137 30.137 0 0 0 5.291-.466 27.56 27.56 0 0 0 4.534-1.168z" fill="#d9e2e9"/><path d="m127 92.864a30.514 30.514 0 0 1 -25.232 30.057 30.244 30.244 0 0 1 -10.583 0 30.524 30.524 0 0 1 0-60.128 30.244 30.244 0 0 1 10.583 0 30.53 30.53 0 0 1 25.232 30.071z" fill="#d9e2e9"/><path d="m101.768 62.792v60.128a30.244 30.244 0 0 1 -10.583 0v-60.128a30.244 30.244 0 0 1 10.583 0z" fill="#f0f5f9"/><g opacity=".25"><path d="m101.768 62.792v60.128a30.151 30.151 0 0 1 -5.291.466c-.321 0-.641 0-.947-.015a30.686 30.686 0 0 0 4.344-.452v-60.127a30.66 30.66 0 0 0 -4.344-.452c.306-.015.627-.015.947-.015a30.142 30.142 0 0 1 5.291.467z" fill="#c1cdd3"/></g><g opacity=".5"><path d="m127 92.864a30.514 30.514 0 0 1 -25.232 30.057 30.537 30.537 0 0 1 -29.036-10.874 30.24 30.24 0 0 0 13.92 6.341 28.938 28.938 0 0 0 4.533.452c.248.015.5.015.758.015a30.137 30.137 0 0 0 5.291-.466 27.56 27.56 0 0 0 4.533-1.166 30.516 30.516 0 0 0 13.906-48.088 30.474 30.474 0 0 1 11.327 23.729z" fill="#c1cdd3"/></g><path d="m96.477 124.387a31.548 31.548 0 1 1 5.463-.481 31.269 31.269 0 0 1 -5.463.481zm0-61.061a29.553 29.553 0 1 0 5.12.452 29.29 29.29 0 0 0 -5.12-.452z" fill="#2f3a5a"/></svg>