<svg id="Layer_1" enable-background="new 0 0 512 512" height="512" viewBox="0 0 512 512" width="512" xmlns="http://www.w3.org/2000/svg"><g id="XMLID_593_"><g id="XMLID_2225_"><g><g id="XMLID_1417_"><g id="XMLID_1418_"><g id="XMLID_1419_"><g id="XMLID_1438_"><g id="XMLID_1439_"><g id="XMLID_1440_"><g id="XMLID_1463_"><g id="XMLID_1464_"><g id="XMLID_1465_"><g id="XMLID_1466_"><g id="XMLID_1470_"><g id="XMLID_1471_"><g id="XMLID_1472_"><g id="XMLID_1473_"><g id="XMLID_1476_"><circle id="XMLID_1494_" cx="256" cy="256" fill="#bcfbff" r="256"/></g></g></g></g></g></g></g></g></g></g></g></g></g></g></g></g></g><path id="XMLID_949_" d="m511.927 261.782c-39.487-39.917-206.58-206.368-206.58-206.368l-19.348 50.92 3.09 34.285h-7.059l-85.608-85.204-24.422 84.585-41.737 20.899 72.668 70.17-126.909 191.189 59.84 59.84c35.828 19.077 76.716 29.902 120.138 29.902 139.452 0 252.852-111.504 255.927-250.218z" fill="#45f6ff"/><g id="XMLID_335_"><g id="XMLID_703_"><path id="XMLID_718_" d="m204.342 88.434c-3.105 12.065-13.805 24.734-21.34 32.55-2.422 2.512-4.517 4.521-5.929 5.848-1.412-1.327-3.507-3.337-5.929-5.848-7.535-7.816-18.235-20.484-21.34-32.55-7.608-29.552 24.459-47.809 27.098-49.258.111-.063.171-.092.171-.092s.06.029.171.092c2.64 1.449 34.707 19.706 27.098 49.258z" fill="#91dc5a"/><path id="XMLID_717_" d="m204.342 88.435c-3.106 12.064-13.803 24.733-21.338 32.548-2.422 2.512-4.518 4.521-5.929 5.848v-87.748s.059.031.169.092c2.64 1.45 34.705 19.707 27.098 49.26z" fill="#58c025"/><path id="XMLID_710_" d="m196.844 82.959-15.716 11.38-.892-12.666 14.101-21.098-14.831 10.739-2.263-32.138c-.111-.063-.171-.092-.171-.092s-.06.029-.171.092l-2.263 32.138-14.828-10.739 14.101 21.098-.892 12.666-15.716-11.38 14.943 22.357-2.582 36.684h14.82l-2.583-36.685z" fill="#58c025"/><path id="XMLID_704_" d="m183.003 120.984 1.481 21.016h-7.41v-102.917s.059.031.169.092l2.265 32.138 14.83-10.737-14.103 21.094.892 12.67 15.717-11.381-14.944 22.356z" fill="#009200"/></g><path id="XMLID_396_" d="m210.264 145.973h-66.381l-19.427 111.906h105.236z" fill="#badf49"/><path id="XMLID_394_" d="m229.694 257.88h-52.79v-111.91h33.36l2.591 14.93 6.969 40.15z" fill="#57c126"/><g id="XMLID_340_"><path id="XMLID_342_" d="m130.263 130.899h93.621v30h-93.621z" fill="#57545c"/></g><g id="XMLID_336_"><path id="XMLID_337_" d="m176.904 130.9h46.98v30h-46.98z" fill="#262628"/></g><g id="XMLID_343_"><path id="XMLID_383_" d="m313.268 88.434c-3.105 12.065-13.805 24.734-21.34 32.55-2.422 2.512-4.517 4.521-5.929 5.848-1.412-1.327-3.507-3.337-5.929-5.848-7.535-7.816-18.235-20.484-21.34-32.55-7.608-29.552 24.459-47.809 27.098-49.258.111-.063.171-.092.171-.092s.06.029.171.092c2.639 1.449 34.706 19.706 27.098 49.258z" fill="#91dc5a"/><path id="XMLID_382_" d="m313.267 88.435c-3.106 12.064-13.803 24.733-21.338 32.548-2.422 2.512-4.518 4.521-5.93 5.848v-87.748s.059.031.169.092c2.642 1.45 34.706 19.707 27.099 49.26z" fill="#58c025"/><path id="XMLID_356_" d="m305.769 82.959-15.716 11.38-.892-12.666 14.101-21.098-14.831 10.739-2.263-32.138c-.111-.063-.171-.092-.171-.092s-.06.029-.171.092l-2.263 32.138-14.831-10.739 14.101 21.098-.892 12.666-15.716-11.38 14.943 22.357-2.579 36.684h14.82l-2.583-36.685z" fill="#58c025"/><path id="XMLID_344_" d="m291.929 120.984 1.48 21.016h-7.41v-102.917s.059.031.169.092l2.265 32.138 14.83-10.737-14.103 21.095.892 12.67 15.717-11.381-14.944 22.356z" fill="#009200"/></g><g id="XMLID_6_"><path id="XMLID_1238_" d="m319.19 145.973h-66.382l-19.427 111.906h105.236z" fill="#badf49"/><path id="XMLID_418_" d="m338.62 257.88h-52.79v-111.91h33.36l2.59 14.93 6.97 40.15z" fill="#57c126"/><path id="XMLID_1240_" d="m343.681 245.975v-55.175l-80.334 55.175v-55.175l-88.754 58.414h-86.609v151.044h336.032v-209.458z" fill="#ff9811"/><path id="XMLID_420_" d="m424.02 190.8v209.46h-138.19v-169.73l42.92-29.48 14.93-10.25v55.17z" fill="#ff7956"/><g id="XMLID_511_"><path id="XMLID_2725_" d="m191.253 283.864h38.441v60.352h-38.441z" fill="#57545c"/><path id="XMLID_2757_" d="m274.454 283.864h38.441v60.352h-38.441z" fill="#57545c"/><g fill="#262628"><path id="XMLID_412_" d="m285.83 283.86h27.07v60.36h-27.07z"/><path id="XMLID_2868_" d="m357.655 283.864h38.441v60.352h-38.441z"/></g></g><path id="XMLID_1157_" d="m115.722 325.895h39.722v74.362h-39.722z" fill="#57545c"/><g id="XMLID_1116_"><path id="XMLID_1117_" d="m239.189 130.899h93.621v30h-93.621z" fill="#57545c"/></g><g id="XMLID_1133_"><path id="XMLID_1135_" d="m76.022 392.258h359.955v30h-359.955z" fill="#ff7038"/></g><g id="XMLID_387_"><path id="XMLID_413_" d="m285.83 392.26h150.15v30h-150.15z" fill="#ff3838"/></g></g><g id="XMLID_389_"><path id="XMLID_414_" d="m285.83 130.9h46.98v30h-46.98z" fill="#262628"/></g></g></g></svg>