<svg id="flat" height="512" viewBox="0 0 512 512" width="512" xmlns="http://www.w3.org/2000/svg"><path d="m144 384v64a106.57991 106.57991 0 0 0 83.22491 40h140.77509v-104z" fill="#f5c99d"/><path d="m368 496h-140.7749a114.02129 114.02129 0 0 1 -89.47217-43.002 8.0027 8.0027 0 0 1 -1.75293-4.998v-32h16v29.13281a98.07487 98.07487 0 0 0 75.2251 34.86719h140.7749z" fill="#deae7e"/><path d="m264 400v24a24 24 0 0 1 -24 24h-176a24 24 0 0 1 -24-24v-376a24 24 0 0 1 24-24h176a24 24 0 0 1 24 24v272" fill="#718799"/><path d="m368 384-53.81347-47.8342a64 64 0 0 0 -42.51929-16.1658h-74.24591a21.42133 21.42133 0 0 0 -21.42133 21.42133 21.42133 21.42133 0 0 0 18.3919 21.206l37.6081 5.37267a82.38849 82.38849 0 0 0 70.64755 40h65.35245z" fill="#f5c99d"/><path d="m302.64746 416a90.878 90.878 0 0 1 -75.44046-40.60352l-33.94629-4.8496a29.42127 29.42127 0 0 1 4.16068-58.54688h74.24609a71.92775 71.92775 0 0 1 47.834 18.18652l51.54002 45.81348h12.9585v16h-16a7.99914 7.99914 0 0 1 -5.31494-2.02051l-53.81348-47.834a55.94113 55.94113 0 0 0 -37.2041-14.14549h-74.24609a13.421 13.421 0 0 0 -1.89844 26.707l37.6084 5.37305a8.001 8.001 0 0 1 5.72851 3.80371 74.76454 74.76454 0 0 0 63.7876 36.11624z" fill="#deae7e"/><path d="m368 360h104v136h-104z" fill="#548aff"/><path d="m112 24 16 16h48l16-16z" fill="#556c80"/><g fill="#eda600"><path d="m80 272h40v16h-40z"/><path d="m136 272h72v16h-72z"/><path d="m80 304h72v16h-72z"/><path d="m100.676 164h46.648v16h-46.648z" transform="matrix(.515 -.857 .857 .515 -87.287 189.829)"/><path d="m128 208h48v16h-48z"/></g><path d="m80 400h24v16h-24z" fill="#556c80"/><path d="m200 400h24v16h-24z" fill="#556c80"/><path d="m72 60.686h16v22.627h-16z" fill="#eda600" transform="matrix(.707 -.707 .707 .707 -27.48 77.657)"/><path d="m108 91.029h16v33.941h-16z" fill="#eda600" transform="matrix(.707 -.707 .707 .707 -42.392 113.657)"/><path d="m212.686 64h22.627v16h-22.627z" fill="#eda600" transform="matrix(.707 -.707 .707 .707 14.692 179.471)"/><path d="m171.029 100h33.941v16h-33.941z" fill="#eda600" transform="matrix(.707 -.707 .707 .707 -21.306 164.56)"/><circle cx="104" cy="216" fill="#eda600" r="24"/><path d="m104 248a32 32 0 1 1 32-32 32.03635 32.03635 0 0 1 -32 32zm0-48a16 16 0 1 0 16 16 16.01833 16.01833 0 0 0 -16-16z" fill="#fcd453"/><circle cx="152" cy="136" fill="#eda600" r="24"/><path d="m152 168a32 32 0 1 1 32-32 32.03635 32.03635 0 0 1 -32 32zm0-48a16 16 0 1 0 16 16 16.01833 16.01833 0 0 0 -16-16z" fill="#fcd453"/><circle cx="200" cy="216" fill="#eda600" r="24"/><path d="m200 248a32 32 0 1 1 32-32 32.03635 32.03635 0 0 1 -32 32zm0-48a16 16 0 1 0 16 16 16.01833 16.01833 0 0 0 -16-16z" fill="#fcd453"/></svg>