<svg id="icons" enable-background="new 0 0 64 64" height="512" viewBox="0 0 64 64" width="512" xmlns="http://www.w3.org/2000/svg"><path d="m8 20v12 23.96l10.26-10.26c-3.25-3.25-5.26-7.74-5.26-12.71 0-5.11 2.13-9.72 5.55-12.99.46-.45.94-.87 1.45-1.25v-10.75z" fill="#94c1ff"/><path d="m56 32v12h-10.75c2.35-3.04 3.75-6.859 3.75-11.01 0-4.83-1.9-9.21-5-12.45v-.54l12-12z" fill="#94c1ff"/><path d="m44 20h-.54c-3.229-3.1-7.62-5.01-12.46-5.01-4.14 0-7.96 1.4-11 3.76v-10.75h12 24z" fill="#94c1ff"/><path d="m44 20.54c-.17-.18-.35-.359-.54-.54-3.229-3.1-7.62-5.01-12.46-5.01-4.14 0-7.96 1.4-11 3.76-.51.38-.99.8-1.45 1.25-3.42 3.271-5.55 7.88-5.55 12.99 0 4.97 2.01 9.46 5.26 12.71 3.25 3.271 7.76 5.29 12.74 5.29 5.12 0 9.73-2.13 13-5.55.44-.46.86-.94 1.25-1.44 2.35-3.04 3.75-6.859 3.75-11.01 0-4.83-1.9-9.21-5-12.45z" fill="#fff"/><path d="m44 20.54c-.17-.18-.35-.359-.54-.54-3.229-3.1-7.62-5.01-12.46-5.01-.672 0-1.332.05-1.985.122 4.035.451 7.668 2.226 10.441 4.888.19.181.37.36.54.54 3.1 3.24 5 7.62 5 12.45 0 4.15-1.4 7.97-3.75 11.01-.39.5-.81.98-1.25 1.44-2.835 2.966-6.681 4.956-10.991 5.434.656.072 1.32.116 1.995.116 5.12 0 9.73-2.13 13-5.55.44-.46.86-.94 1.25-1.44 2.35-3.04 3.75-6.859 3.75-11.01 0-4.83-1.9-9.21-5-12.45z" fill="#d7e9ff"/><path d="m45.25 44c-.39.5-.81.98-1.25 1.44-3.27 3.42-7.88 5.55-13 5.55-4.98 0-9.49-2.02-12.74-5.29l-10.26 10.26v.04h24 12l12-12z" fill="#94c1ff"/><g fill="#116fff"><path d="m44 57.002h-36c-.553 0-1-.447-1-1v-36c0-.553.447-1 1-1h36c.553 0 1 .447 1 1v36c0 .553-.447 1-1 1zm-35-2h34v-34h-34z"/><path d="m44 57.002c-.256 0-.512-.098-.707-.293-.391-.391-.391-1.023 0-1.414l12.001-12c.391-.391 1.023-.391 1.414 0s.391 1.023 0 1.414l-12.001 12c-.195.195-.451.293-.707.293z"/><path d="m44 20.998c-.256 0-.512-.098-.707-.293-.391-.391-.391-1.023 0-1.414l12.001-12c.391-.391 1.023-.391 1.414 0s.391 1.023 0 1.414l-12.001 12c-.195.195-.451.293-.707.293z"/><path d="m7.998 20.998c-.256 0-.512-.098-.707-.293-.391-.391-.391-1.023 0-1.414l12.001-12c.391-.391 1.023-.391 1.414 0s.391 1.023 0 1.414l-12.001 12c-.195.195-.451.293-.707.293z"/><path d="m56.001 8.998h-36.002c-.553 0-1-.447-1-1s.447-1 1-1h36.002c.553 0 1 .447 1 1s-.447 1-1 1z"/><path d="m56.001 45.002c-.553 0-1-.447-1-1v-36.004c0-.553.447-1 1-1s1 .447 1 1v36.004c0 .553-.447 1-1 1z"/><path d="m7.965 57.002c-.256 0-.512-.098-.707-.293-.391-.391-.391-1.023 0-1.414l10.295-10.295c.391-.391 1.023-.391 1.414 0s.391 1.023 0 1.414l-10.295 10.295c-.195.195-.451.293-.707.293z"/><path d="m19.999 19.752c-.553 0-1-.447-1-1v-10.754c0-.553.447-1 1-1s1 .447 1 1v10.754c0 .553-.447 1-1 1z"/><path d="m56.001 45.002h-10.754c-.553 0-1-.447-1-1s.447-1 1-1h10.754c.553 0 1 .447 1 1s-.447 1-1 1z"/><path d="m31.005 51.997c-10.477 0-19-8.523-19-19s8.523-19 19-19 19 8.523 19 19-8.524 19-19 19zm0-36c-9.374 0-17 7.626-17 17s7.626 17 17 17 17-7.626 17-17-7.626-17-17-17z"/><path d="m32 9.003c-.553 0-1-.447-1-1v-7.003c0-.553.447-1 1-1s1 .447 1 1v7.003c0 .553-.447 1-1 1z"/><path d="m32.999 2.999c-.256 0-.512-.098-.707-.293l-.999-.999c-.391-.391-.391-1.023 0-1.414s1.023-.391 1.414 0l.999.999c.391.391.391 1.023 0 1.414-.195.195-.451.293-.707.293z"/><path d="m31.001 2.999c-.256 0-.512-.098-.707-.293-.391-.391-.391-1.023 0-1.414l.999-.999c.391-.391 1.023-.391 1.414 0s.391 1.023 0 1.414l-.999.999c-.195.195-.451.293-.707.293z"/><path d="m32 64c-.553 0-1-.447-1-1v-7.003c0-.553.447-1 1-1s1 .447 1 1v7.003c0 .553-.447 1-1 1z"/><path d="m32 64c-.256 0-.512-.098-.707-.293l-.999-.999c-.391-.391-.391-1.023 0-1.414s1.023-.391 1.414 0l.999.999c.391.391.391 1.023 0 1.414-.195.195-.451.293-.707.293z"/><path d="m32 64c-.256 0-.512-.098-.707-.293-.391-.391-.391-1.023 0-1.414l.999-.999c.391-.391 1.023-.391 1.414 0s.391 1.023 0 1.414l-.999.999c-.195.195-.451.293-.707.293z"/><path d="m63 33h-7.003c-.553 0-1-.447-1-1s.447-1 1-1h7.003c.553 0 1 .447 1 1s-.447 1-1 1z"/><path d="m62.001 33.999c-.256 0-.512-.098-.707-.293-.391-.391-.391-1.023 0-1.414l.999-.999c.391-.391 1.023-.391 1.414 0s.391 1.023 0 1.414l-.999.999c-.195.195-.451.293-.707.293z"/><path d="m63 33c-.256 0-.512-.098-.707-.293l-.999-.999c-.391-.391-.391-1.023 0-1.414s1.023-.391 1.414 0l.999.999c.391.391.391 1.023 0 1.414-.195.195-.451.293-.707.293z"/><path d="m8.003 33h-7.003c-.553 0-1-.447-1-1s.447-1 1-1h7.003c.553 0 1 .447 1 1s-.447 1-1 1z"/><path d="m1 33c-.256 0-.512-.098-.707-.293-.391-.391-.391-1.023 0-1.414l.999-.999c.391-.391 1.023-.391 1.414 0s.391 1.023 0 1.414l-.999.999c-.195.195-.451.293-.707.293z"/><path d="m1.999 33.999c-.256 0-.512-.098-.707-.293l-.999-.999c-.391-.391-.391-1.023 0-1.414s1.023-.391 1.414 0l.999.999c.391.391.391 1.023 0 1.414-.195.195-.451.293-.707.293z"/></g></svg>