<?xml version="1.0" ?><svg style="enable-background:new 0 0 48 48;" version="1.1" viewBox="0 0 48 48" xml:space="preserve" xmlns="http://www.w3.org/2000/svg" xmlns:xlink="http://www.w3.org/1999/xlink"><g id="Padding__x26__Artboard"/><g id="Icons"><g><path d="M34.13323,30.08836c-0.06372-0.10785-0.1347-0.19073-0.21533-0.23682    c0,0-0.93164-0.47412-2.16113-0.47412c-1.37531,0-5.48077-0.46979-7.60889-1.93402l-0.14355,3.02386    c-0.00781,0.16064-0.14062,0.28564-0.31396,0.28564c-0.16553-0.00781-0.29346-0.14844-0.28564-0.31396l0.14691-3.09479    c-1.23297,0.57971-4.72437,2.07678-7.90082,2.07722c-0.17448,0-0.34681-0.01736-0.52179-0.00483    c-0.34964,0.02504-0.69849,0.11572-1.00194,0.29447c-0.19446,0.11455-0.36684,0.26457-0.506,0.44234    c0.47931,0.35956,2.02362,1.71167,1.9726,4.19427l0.00092,3.55566l2.12701,2.12744l3.125-3.20508    c0.05664-0.05811,0.13379-0.09033,0.21484-0.09033h5.09082c0.07178,0,0.14111,0.02539,0.1958,0.07227l3.75488,3.23047    l1.89911-2.12781l0.06915-3.57483C32.01537,31.63035,33.85534,30.2772,34.13323,30.08836z M21.98723,31.8491l1.83057,0.49121    l1.84619-0.36621c0.1626-0.03125,0.3208,0.07324,0.35303,0.23584s-0.07373,0.3208-0.23584,0.35303l-1.91504,0.37988    c-0.01953,0.00342-0.03906,0.00537-0.05859,0.00537c-0.02637,0-0.05225-0.00342-0.07764-0.01025l-1.89795-0.50977    c-0.16016-0.04297-0.25488-0.20752-0.21191-0.36719C21.66253,31.90135,21.82854,31.80467,21.98723,31.8491z M28.18743,36.23826    c-0.05908,0.06445-0.13965,0.09668-0.2207,0.09668c-0.07275,0-0.14551-0.02588-0.20312-0.0791l-1.01904-0.93701h-6.03174    l-1.07227,0.94189c-0.12354,0.1084-0.31348,0.09766-0.42334-0.02783c-0.10938-0.12451-0.09668-0.31396,0.02783-0.42334    l1.15723-1.01611c0.05469-0.04785,0.125-0.07422,0.19775-0.07422h6.26172c0.0752,0,0.14746,0.02783,0.20312,0.0791    l1.10498,1.01611C28.29192,35.92625,28.29973,36.11619,28.18743,36.23826z" style="fill:#303030;"/><path d="M13.33178,30.68974c-0.05688,0.151-0.11389,0.30231-0.14532,0.49091    c-0.00098,0.01367-0.31787,2.87354-0.02197,4.29199l1.83038,1.83075l-0.00079-2.9621    C15.03728,32.22709,13.79308,31.0532,13.33178,30.68974z" style="fill:#303030;"/><path d="M32.67083,34.33494l-0.05566,2.88843l1.84717-2.06958    c0.14087-1.45026,0.15649-3.37714-0.1123-4.47791C33.90191,31.02452,32.62712,32.20219,32.67083,34.33494z" style="fill:#303030;"/><polygon points="37.22698,30.07634 37.22704,30.07634 37.96691,25.14085 37.96685,25.14085   " style="fill:none;"/><path d="M10.55565,30.19786l0.00092,0.00708l-0.69806-5.12415l0,0l-0.091-0.66821    c-0.37347-0.10492-0.87451-0.15991-1.24561,0.13525c-0.4458,0.35156-0.53418,1.04102-0.27002,2.10791    c0.61182,2.47412,1.12012,3.95264,1.9082,4.18652c0.06299,0.01855,0.13672,0.03174,0.21924,0.03174    c0.07928,0,0.16821-0.01709,0.26184-0.04834L10.55565,30.19786z" style="fill:#303030;"/><path d="M39.47844,24.54783c-0.43036-0.34137-1.0332-0.21515-1.41016-0.08344l-0.10138,0.67645h-0.00006    l-0.73987,4.93549h0.00006l-0.09613,0.64111c0.18182,0.11572,0.34869,0.15656,0.48962,0.15656    c0.08252,0,0.15625-0.01318,0.21973-0.03174c0.78809-0.23389,1.29639-1.7124,1.9082-4.18701    C40.01213,25.58934,39.92376,24.89988,39.47844,24.54783z" style="fill:#303030;"/><path d="M23.69133,5.92527c-0.30368-0.00253-10.49132-0.16564-13.62084,9.27211    c-0.48753,1.47027-0.57309,3.04751-0.3398,4.57884l0.05536,0.36341l2.18457,15.99805l0.14423,1.01422l4.72668,4.92328h14.25159    c0.11758-0.07748,4.44684-4.82611,4.44684-4.82611l0.16406-1.06012l2.58594-17.2085v0    c0.21986-1.45255,0.05658-2.93779-0.49828-4.29807C36.24275,10.88509,32.5305,5.95721,23.69133,5.92527z M23.73821,26.58641    c0.03589-0.01849,0.0755-0.0166,0.11432-0.01959c0.01416-0.00165,0.02216-0.01361,0.04834-0.0083    c0.06445,0.00555,0.12689,0.02777,0.1767,0.07281c1.77051,1.61816,6.31299,2.14648,7.6792,2.14648    c1.38379,0,2.40625,0.52539,2.44873,0.54736c1.31152,0.74951,0.93359,5.11816,0.84424,5.98633    c-0.00635,0.0625-0.03223,0.12207-0.07471,0.16895l-4.62061,5.17676c-0.05908,0.06641-0.14111,0.1001-0.22363,0.1001    c-0.06934,0-0.13916-0.02393-0.1958-0.07227l-3.89404-3.3501h-4.85303c-0.0098,0.01005-0.0196,0.0201-0.0294,0.03016    c-0.02787,0.02858-0.05573,0.05717-0.0836,0.08575c-0.04366,0.04478-0.08731,0.08956-0.13097,0.13434    c-0.05717,0.05864-0.11434,0.11728-0.17151,0.17592c-0.06841,0.07016-0.13681,0.14033-0.20522,0.21049    c-0.07737,0.07935-0.15473,0.15871-0.2321,0.23806c-0.08405,0.08621-0.16809,0.17242-0.25214,0.25863    c-0.08845,0.09072-0.1769,0.18145-0.26536,0.27218c-0.09058,0.09291-0.18116,0.18582-0.27174,0.27873    c-0.09043,0.09276-0.18087,0.18551-0.2713,0.27827c-0.08801,0.09027-0.17602,0.18054-0.26402,0.27081    c-0.08331,0.08545-0.16661,0.17089-0.24992,0.25634c-0.07633,0.07829-0.15265,0.15658-0.22898,0.23486    c-0.06707,0.06879-0.13414,0.13759-0.20121,0.20638c-0.05554,0.05696-0.11107,0.11393-0.16661,0.17089    c-0.04173,0.0428-0.08345,0.0856-0.12518,0.1284c-0.02564,0.0263-0.05128,0.0526-0.07692,0.0789    c-0.07982,0.08187-0.21768,0.15349-0.33386,0.10567c-0.04333-0.01783-0.08228-0.04735-0.11525-0.08031    c0,0-2.42914-2.42938-2.42999-2.43024l-2.40399-2.40424c-0.03955-0.03906-0.06738-0.08887-0.08008-0.14307    c-0.3501-1.48828-0.02051-4.46826-0.00635-4.59424c0.05274-0.31721,0.14511-0.62929,0.2906-0.91673    c0.12123-0.23952,0.27934-0.4601,0.47139-0.64795c0.17174-0.16799,0.36917-0.30869,0.58251-0.41891    c0.19744-0.102,0.4079-0.17809,0.62397-0.22963c0.19236-0.04589,0.39159-0.07498,0.58975-0.07849    c0.20532-0.00363,0.4102,0.01388,0.61537,0.01787c0.10996,0.00214,0.21993-0.0057,0.33006-0.01076    c0.16358-0.00752,0.32697-0.01892,0.49005-0.03372c0.33059-0.03,0.65986-0.07392,0.98724-0.12867    c0.32859-0.05496,0.65531-0.12087,0.97996-0.1956c0.31951-0.07354,0.63702-0.15564,0.9525-0.24486    c0.30351-0.08584,0.60514-0.17829,0.90488-0.27646c0.28068-0.09193,0.55972-0.18889,0.83708-0.2904    c0.25109-0.09189,0.50081-0.18751,0.74912-0.28667c0.21475-0.08576,0.42845-0.17418,0.64099-0.26528    c0.17169-0.0736,0.34263-0.14894,0.51269-0.22623c0.12191-0.05541,0.24338-0.11181,0.36422-0.16952    c0.06542-0.03124,0.13069-0.06281,0.19558-0.09514C23.71951,26.59581,23.72891,26.5912,23.73821,26.58641z M17.33049,9.31541    c0.04834-0.0249,1.19189-0.61475,1.78125-0.72412c0.16162-0.02979,0.31934,0.07666,0.34961,0.24023    c0.03027,0.1626-0.07715,0.31934-0.24023,0.34961c-0.4165,0.07764-1.30713,0.50781-1.61523,0.66748    c-0.04395,0.02246-0.09082,0.03369-0.13721,0.03369c-0.10889,0-0.21338-0.05957-0.26709-0.1626    C17.12542,9.57273,17.18303,9.39158,17.33049,9.31541z M16.08684,10.18016c0.1377-0.09326,0.32373-0.05469,0.41602,0.08252    c0.09229,0.1377,0.05566,0.32373-0.08203,0.41602c-0.02441,0.0166-2.4541,1.67334-3.6499,4.7041    c-0.04688,0.11768-0.15967,0.18994-0.2793,0.18994c-0.03662,0-0.07422-0.00684-0.11035-0.021    c-0.15381-0.06104-0.22949-0.23535-0.16846-0.38965C13.47991,11.95115,15.98137,10.25096,16.08684,10.18016z M12.476,18.13084    c0.0542-0.09912,0.15967-0.15381,0.27197-0.1543c0.2489,0.00824,5.47729,0.21729,8.72858,2.90826    c-0.48712-0.81201-1.31787-1.80591-2.69342-2.5191c-0.14697-0.07617-0.20459-0.25732-0.12793-0.4043    c0.07617-0.14648,0.25635-0.2041,0.4043-0.12793c2.97607,1.54297,3.604,4.23193,3.62939,4.3457    c0.00043,0.00208-0.00146,0.00366-0.00104,0.00574c0.01038,0.05066,0.00964,0.10327-0.00726,0.15393    c-0.04932,0.14795-1.2373,3.63623-4.01855,4.72461c-0.53906,0.21094-1.09912,0.31592-1.67822,0.31592    c-0.96582,0-1.98438-0.29297-3.04492-0.87744C13.87639,26.46238,9.48137,23.5366,12.476,18.13084z M33.79534,26.49119    c-1.07373,0.59229-2.09766,0.8877-3.06641,0.8877c-0.57861,0-1.13672-0.10498-1.67432-0.31543    c-2.78125-1.08838-3.96924-4.57666-4.01855-4.72461c-0.01691-0.05066-0.01764-0.10327-0.00726-0.15393    c0.00043-0.00208-0.00146-0.00366-0.00104-0.00574c0.02539-0.11377,0.65234-2.80273,3.62891-4.3457    c0.14844-0.07812,0.32861-0.01953,0.4043,0.12793c0.07666,0.14697,0.01904,0.32812-0.12793,0.4043    c-1.37579,0.71332-2.20648,1.70746-2.69342,2.51953c3.25116-2.69141,8.47968-2.90045,8.72858-2.90869    c0.1167,0.00488,0.21729,0.05566,0.27197,0.1543C38.23479,23.5366,33.83977,26.46238,33.79534,26.49119z" style="fill:#303030;"/></g></g></svg>