<?xml version="1.0" ?><svg data-name="Layer 1" id="Layer_1" viewBox="0 0 64 64" xmlns="http://www.w3.org/2000/svg"><title/><path d="M44,53H12V9a6,6,0,0,1,6-6H50L44,25Z" style="fill:#9bf6ff"/><path d="M44,61H11.138l-.867-.422a3.954,3.954,0,0,1,0-7.156L11.138,53H44l-.867.422a3.954,3.954,0,0,0,0,7.156Z" style="fill:#a0c4ff"/><path d="M50,3h0a6,6,0,0,1,6,6V25a0,0,0,0,1,0,0H44a0,0,0,0,1,0,0V9A6,6,0,0,1,50,3Z" style="fill:#a0c4ff"/><circle cx="20" cy="38" r="2" style="fill:#ffadad"/><path d="M50,2H18a7.009,7.009,0,0,0-7,7V52.032a.964.964,0,0,0-.3.069l-.867.421a4.956,4.956,0,0,0,0,8.956l.867.421a.994.994,0,0,0,.438.1H44a1,1,0,0,0,.438-1.9l-.868-.422a2.955,2.955,0,0,1,0-5.358l.868-.422a.937.937,0,0,0,.231-.166c.012-.011.029-.017.04-.029a.985.985,0,0,0,.2-.3c.014-.032.018-.068.029-.1a.939.939,0,0,0,.052-.258c0-.017.01-.031.01-.049V26H56a1,1,0,0,0,1-1V9A7.009,7.009,0,0,0,50,2ZM11.368,60l-.66-.321a2.955,2.955,0,0,1,0-5.358l.66-.321H40.877a4.939,4.939,0,0,0,0,6ZM43,9V52H13V9a5.006,5.006,0,0,1,5-5H45.111A6.973,6.973,0,0,0,43,9ZM55,24H45V9A5,5,0,0,1,55,9Z"/><path d="M35,20.875V18l1.2,1.6a1,1,0,1,0,1.6-1.2l-3-4a1.036,1.036,0,0,0-1.6,0l-3,4a1,1,0,0,0,1.6,1.2L33,18v2.875a16.906,16.906,0,0,1-9.4,15.2l-.982.491a2.987,2.987,0,1,0,.3,2.086l1.575-.788A18.9,18.9,0,0,0,35,20.875ZM20,39a1,1,0,1,1,1-1A1,1,0,0,1,20,39Z"/><path d="M40.707,33.293a1,1,0,0,0-1.414,0l-2.122,2.122L35.05,33.293a1,1,0,0,0-1.414,1.414l2.121,2.122L33.636,38.95a1,1,0,1,0,1.414,1.414l2.121-2.121,2.122,2.121a1,1,0,0,0,1.414-1.414l-2.122-2.121,2.122-2.122A1,1,0,0,0,40.707,33.293Z"/><path d="M18.636,20.636a1,1,0,0,0,0,1.414l2.121,2.121-2.121,2.122a1,1,0,1,0,1.414,1.414l2.121-2.122,2.122,2.122a1,1,0,0,0,1.414-1.414l-2.122-2.122,2.122-2.121a1,1,0,0,0-1.414-1.414l-2.122,2.121L20.05,20.636A1,1,0,0,0,18.636,20.636Z"/><path d="M20,46H16a1,1,0,0,0,0,2h4a1,1,0,0,0,0-2Z"/><path d="M30,46H26a1,1,0,0,0,0,2h4a1,1,0,0,0,0-2Z"/><path d="M40,46H36a1,1,0,0,0,0,2h4a1,1,0,0,0,0-2Z"/><path d="M16,10h4a1,1,0,0,0,0-2H16a1,1,0,0,0,0,2Z"/><path d="M26,10h4a1,1,0,0,0,0-2H26a1,1,0,0,0,0,2Z"/><path d="M40,8H36a1,1,0,0,0,0,2h4a1,1,0,0,0,0-2Z"/></svg>