<svg id="Layer_1" enable-background="new 0 0 256 256" height="512" viewBox="0 0 256 256" width="512" xmlns="http://www.w3.org/2000/svg"><g><path d="m155.153 172.296h-54.306c-1.381 0-2.5-1.119-2.5-2.5s1.119-2.5 2.5-2.5h54.306c1.381 0 2.5 1.119 2.5 2.5s-1.119 2.5-2.5 2.5z" fill="#ebe7f2"/><path d="m155.153 119.577h-54.306c-1.381 0-2.5-1.119-2.5-2.5s1.119-2.5 2.5-2.5h54.306c1.381 0 2.5 1.119 2.5 2.5s-1.119 2.5-2.5 2.5z" fill="#ebe7f2"/><path d="m160.796 201.649h-65.592c-1.381 0-2.5-1.119-2.5-2.5v-12.321c0-4.086 3.324-7.41 7.41-7.41h55.771c4.086 0 7.41 3.324 7.41 7.41v12.321c.001 1.381-1.118 2.5-2.499 2.5zm-63.092-5h60.592v-9.821c0-1.329-1.081-2.41-2.41-2.41h-55.771c-1.329 0-2.41 1.081-2.41 2.41v9.821z" fill="#f9b087"/><path d="m155.153 184.418c-1.381 0-2.5-1.119-2.5-2.5v-11.412l-5.769-9.335c-.244-.396-.373-.851-.373-1.314v-32.229c0-.464.129-.919.373-1.314l5.768-9.335v-24.279h-5.861v7.437c0 4.373-3.558 7.931-7.931 7.931s-7.93-3.558-7.93-7.931v-7.437h-5.861v7.437c0 4.373-3.558 7.931-7.93 7.931-4.373 0-7.931-3.558-7.931-7.931v-7.437h-5.861v24.278l5.768 9.335c.244.396.373.851.373 1.314v32.229c0 .464-.129.919-.373 1.314l-5.769 9.335v11.412c0 1.381-1.119 2.5-2.5 2.5s-2.5-1.119-2.5-2.5v-12.122c0-.464.129-.919.373-1.314l5.768-9.335v-30.809l-5.768-9.335c-.244-.396-.373-.851-.373-1.314v-26.375c0-1.992 1.62-3.612 3.611-3.612h8.638c1.992 0 3.612 1.62 3.612 3.612v8.824c0 1.616 1.314 2.931 2.931 2.931 1.616 0 2.93-1.314 2.93-2.931v-8.824c0-1.992 1.62-3.612 3.612-3.612h8.638c1.992 0 3.612 1.62 3.612 3.612v8.824c0 1.616 1.314 2.931 2.93 2.931s2.931-1.314 2.931-2.931v-8.824c0-1.992 1.62-3.612 3.612-3.612h8.638c1.991 0 3.611 1.62 3.611 3.612v26.376c0 .464-.129.919-.373 1.314l-5.768 9.335v30.809l5.769 9.335c.244.396.373.851.373 1.314v12.122c0 1.381-1.119 2.5-2.5 2.5z" fill="#f9b087"/><path d="m183.728 213.208h-111.522c-1.381 0-2.5-1.119-2.5-2.5v-147.658c0-1.381 1.119-2.5 2.5-2.5h11.611c1.381 0 2.5 1.119 2.5 2.5s-1.119 2.5-2.5 2.5h-9.111v142.658h106.521v-142.658h-9.045c-1.381 0-2.5-1.119-2.5-2.5s1.119-2.5 2.5-2.5h11.545c1.381 0 2.5 1.119 2.5 2.5v147.658c.001 1.381-1.119 2.5-2.499 2.5z" fill="#ebe7f2"/><g fill="#846f75"><path d="m117.48 128.125c-1.381 0-2.5 1.119-2.5 2.5v24.559c0 1.381 1.119 2.5 2.5 2.5s2.5-1.119 2.5-2.5v-24.559c0-1.381-1.119-2.5-2.5-2.5z"/><path d="m128 128.125c-1.381 0-2.5 1.119-2.5 2.5v24.559c0 1.381 1.119 2.5 2.5 2.5s2.5-1.119 2.5-2.5v-24.559c0-1.381-1.119-2.5-2.5-2.5z"/><path d="m138.52 128.125c-1.381 0-2.5 1.119-2.5 2.5v24.559c0 1.381 1.119 2.5 2.5 2.5s2.5-1.119 2.5-2.5v-24.559c0-1.381-1.12-2.5-2.5-2.5z"/><path d="m196.426 45.341h-136.852c-1.381 0-2.5 1.119-2.5 2.5v178.054c0 1.381 1.119 2.5 2.5 2.5h136.852c1.381 0 2.5-1.119 2.5-2.5v-178.054c0-1.381-1.119-2.5-2.5-2.5zm-110.109 5h83.365v19.831c0 1.379-1.122 2.5-2.5 2.5h-78.365c-1.378 0-2.5-1.121-2.5-2.5zm107.609 173.054h-131.852v-173.054h19.243v19.831c0 4.136 3.364 7.5 7.5 7.5h78.365c4.136 0 7.5-3.364 7.5-7.5v-19.831h19.243v173.054z"/><path d="m97.611 40.341c1.381 0 2.5-1.119 2.5-2.5v-2.735c0-1.379 1.122-2.5 2.5-2.5h50.778c1.378 0 2.5 1.121 2.5 2.5v2.735c0 1.381 1.119 2.5 2.5 2.5s2.5-1.119 2.5-2.5v-2.735c0-4.136-3.364-7.5-7.5-7.5h-50.778c-4.136 0-7.5 3.364-7.5 7.5v2.735c0 1.381 1.119 2.5 2.5 2.5z"/></g></g></svg>