<svg id="_x31_px" enable-background="new 0 0 36 36" height="512" viewBox="0 0 36 36" width="512" xmlns="http://www.w3.org/2000/svg"><path d="m3.442 23.883c6.061 3.333 8.497 8.761 11.417 10.367 2.921 1.606 9.978 3.299 17.366-10.137s.221-19.945-2.992-21.712c-15.042-8.27-36.525 15.58-25.791 21.482z" fill="#efefef"/><g fill="#a4afc1"><path d="m10.095 6.28h2v1h-2z" transform="matrix(.707 -.707 .707 .707 -1.544 9.831)"/><path d="m6.029 10.346h2v1h-2z" transform="matrix(.707 -.707 .707 .707 -5.61 8.147)"/><path d="m6.53 5.603h1v2h-1z" transform="matrix(.707 -.707 .707 .707 -2.61 6.905)"/><path d="m10.772 9.845h1v2h-1z" transform="matrix(.707 -.707 .707 .707 -4.367 11.147)"/></g><path d="m20.525 12.525-11 11c-.633.634-1.025 1.509-1.025 2.475 0 1.933 1.567 3.5 3.5 3.5.966 0 1.841-.392 2.475-1.025l11-11z" fill="#f3f3f1"/><circle cx="26" cy="12" fill="#2fdf84" r="1.5"/><circle cx="22.5" cy="7.5" fill="#2fdf84" r="1"/><path d="m12 27c-.551 0-1-.449-1-1s.449-1 1-1 1 .449 1 1-.449 1-1 1z"/><path d="m15 25c-.551 0-1-.449-1-1s.449-1 1-1 1 .449 1 1-.449 1-1 1z"/><path d="m22.18 20.76-.82.46c-.67.37-1.55.37-2.22 0l-.78-.44c-.67-.37-1.55-.37-2.22 0l-.78.44c-.67.37-1.55.37-2.22 0l-.83-.47h-.01l-2.775 2.775c-.633.634-1.025 1.509-1.025 2.475 0 1.933 1.567 3.5 3.5 3.5.966 0 1.841-.392 2.475-1.025l7.707-7.707z" fill="#2fdf84"/><path d="m10.5 26c0-.966.392-1.841 1.025-2.475l10-10-1-1-11 11c-.633.634-1.025 1.509-1.025 2.475 0 1.933 1.567 3.5 3.5 3.5.35 0 .681-.067 1-.163-1.442-.432-2.5-1.754-2.5-3.337z" fill="#d5dbe1"/><path d="m26.5 12c0-.443.195-.836.5-1.111-.266-.239-.614-.389-1-.389-.828 0-1.5.672-1.5 1.5s.672 1.5 1.5 1.5c.386 0 .734-.15 1-.389-.305-.275-.5-.668-.5-1.111z" fill="#00b871"/><path d="m10.5 26c0-.966.392-1.841 1.025-2.475l2.112-2.112c-.173-.046-.341-.107-.497-.193l-.83-.47h-.01l-2.775 2.775c-.633.634-1.025 1.509-1.025 2.475 0 1.933 1.567 3.5 3.5 3.5.35 0 .681-.067 1-.163-1.442-.432-2.5-1.754-2.5-3.337z" fill="#00b871"/><path d="m12.25 30c-2.343 0-4.25-1.907-4.25-4.25 0-1.135.442-2.202 1.244-3.005l10.5-10.5c.293-.293.768-.293 1.061 0s.293.768 0 1.061l-10.5 10.5c-.519.519-.805 1.21-.805 1.944 0 1.516 1.234 2.75 2.75 2.75.734 0 1.425-.286 1.945-.806l10.5-10.5c.293-.293.768-.293 1.061 0s.293.768 0 1.061l-10.5 10.5c-.804.803-1.871 1.245-3.006 1.245z"/><path d="m22 9.55h1.5v11.399h-1.5z" transform="matrix(.707 -.707 .707 .707 -4.12 20.553)"/><path d="m26 14c-1.103 0-2-.897-2-2s.897-2 2-2 2 .897 2 2-.897 2-2 2zm0-2.5c-.276 0-.5.224-.5.5s.224.5.5.5.5-.224.5-.5-.224-.5-.5-.5z"/><circle cx="22.5" cy="7.5" r="1.5"/><circle cx="12" cy="26" r="1"/><circle cx="15" cy="24" r="1"/><path d="m17.14 15.027h1.5v3.225h-1.5z" transform="matrix(.707 -.707 .707 .707 -6.526 17.524)"/><path d="m20.499 21.997c-.512 0-1.024-.124-1.471-.37l-.787-.444c-.44-.242-1.041-.244-1.489.003l-.774.437c-.9.497-2.056.497-2.951.003l-.837-.475c-.36-.204-.487-.662-.283-1.022.205-.361.663-.487 1.022-.283l.83.47c.44.242 1.041.243 1.488-.004l.774-.437c.901-.496 2.057-.496 2.951-.003l.787.444c.441.244 1.042.244 1.489-.003l.815-.458c.361-.203.818-.075 1.021.287.203.361.075.818-.287 1.021l-.82.46c-.45.25-.965.374-1.478.374z"/></svg>